<svg viewBox="0 0 24 24" fill="none" xmlns="http://www.w3.org/2000/svg"><path fill="#26A7DE" d="M0 0h24v24H0z"/><path d="M18.255 8.762c.01.14.01.28.01.422 0 4.305-3.278 9.27-9.27 9.27v-.003A9.224 9.224 0 014 16.991a6.543 6.543 0 004.822-1.35 3.262 3.262 0 01-3.044-2.263c.488.094.991.075 1.471-.056a3.258 3.258 0 01-2.614-3.194v-.041c.454.252.96.392 1.48.408a3.262 3.262 0 01-1.01-4.35 9.247 9.247 0 006.716 3.403 3.26 3.26 0 015.552-2.971 6.537 6.537 0 002.069-.791 3.27 3.27 0 01-1.432 1.802 6.479 6.479 0 001.87-.513 6.618 6.618 0 01-1.625 1.687z" fill="#fff"/></svg>