<svg width="10" height="10" viewBox="0 0 10 10" fill="none" xmlns="http://www.w3.org/2000/svg">
<g clip-path="url(#clip0_610_117)">
<path d="M5 9.5C4.05618 9.5 3.38175 9.49952 2.85523 9.4518C2.33558 9.4047 2.00929 9.31477 1.75 9.16506C1.36995 8.94564 1.05436 8.63005 0.834936 8.25C0.685234 7.99071 0.595297 7.66442 0.548199 7.14477C0.500479 6.61825 0.5 5.94382 0.5 5C0.5 4.05618 0.500479 3.38175 0.548199 2.85523C0.595297 2.33558 0.685234 2.00929 0.834936 1.75C1.05436 1.36995 1.36995 1.05436 1.75 0.834936C2.00929 0.685234 2.33558 0.595297 2.85523 0.548199C3.38175 0.500479 4.05618 0.5 5 0.5C5.94382 0.5 6.61825 0.500479 7.14477 0.548199C7.66442 0.595297 7.99071 0.685234 8.25 0.834936C8.63005 1.05436 8.94564 1.36995 9.16506 1.75C9.31477 2.00929 9.4047 2.33558 9.4518 2.85523C9.49952 3.38175 9.5 4.05618 9.5 5C9.5 5.94382 9.49952 6.61825 9.4518 7.14477C9.4047 7.66442 9.31477 7.99071 9.16506 8.25C8.94564 8.63005 8.63005 8.94564 8.25 9.16506C7.99071 9.31477 7.66442 9.4047 7.14477 9.4518C6.61825 9.49952 5.94382 9.5 5 9.5Z" fill="url(#paint0_linear_610_117)" stroke="#262626"/>
<g filter="url(#filter0_dd_610_117)">
<path d="M4 7.5H3V5.5H2V4.5H3C3 3.5 4 2.5 5 2.5V3.5C4 3.5 4 4.5 4 4.5L6 4.5V5.5C6 6 6.5 6.5 7 6.5V7.5C6 7.5 5 6.5 5 5.5H4V7.5Z" fill="white"/>
<path d="M7 2.5H6V3.5L7 3.5V2.5Z" fill="white"/>
</g>
</g>
<defs>
<filter id="filter0_dd_610_117" x="-2" y="2.5" width="13" height="13" filterUnits="userSpaceOnUse" color-interpolation-filters="sRGB">
<feFlood flood-opacity="0" result="BackgroundImageFix"/>
<feColorMatrix in="SourceAlpha" type="matrix" values="0 0 0 0 0 0 0 0 0 0 0 0 0 0 0 0 0 0 127 0" result="hardAlpha"/>
<feOffset dx="1"/>
<feComposite in2="hardAlpha" operator="out"/>
<feColorMatrix type="matrix" values="0 0 0 0 0 0 0 0 0 0 0 0 0 0 0 0 0 0 0.2 0"/>
<feBlend mode="normal" in2="BackgroundImageFix" result="effect1_dropShadow_610_117"/>
<feColorMatrix in="SourceAlpha" type="matrix" values="0 0 0 0 0 0 0 0 0 0 0 0 0 0 0 0 0 0 127 0" result="hardAlpha"/>
<feOffset dy="4"/>
<feGaussianBlur stdDeviation="2"/>
<feComposite in2="hardAlpha" operator="out"/>
<feColorMatrix type="matrix" values="0 0 0 0 0 0 0 0 0 0 0 0 0 0 0 0 0 0 0.25 0"/>
<feBlend mode="normal" in2="effect1_dropShadow_610_117" result="effect2_dropShadow_610_117"/>
<feBlend mode="normal" in="SourceGraphic" in2="effect2_dropShadow_610_117" result="shape"/>
</filter>
<linearGradient id="paint0_linear_610_117" x1="5" y1="0" x2="9.375" y2="12.5" gradientUnits="userSpaceOnUse">
<stop offset="0.0509212" stop-color="#4E4E4E"/>
<stop offset="0.597617" stop-color="#9B9B9B"/>
</linearGradient>
<clipPath id="clip0_610_117">
<rect width="10" height="10" fill="white"/>
</clipPath>
</defs>
</svg>
