<svg width="16" height="16" viewBox="0 0 16 16" fill="none" xmlns="http://www.w3.org/2000/svg">
<path fill-rule="evenodd" clip-rule="evenodd" d="M2.36853 3.90286C2.85657 2.08149 3.10058 1.17081 3.81802 0.756593C4.53546 0.342379 5.44614 0.586396 7.26751 1.07443L12.0971 2.36853C13.9185 2.85656 14.8292 3.10058 15.2434 3.81802C15.6576 4.53545 15.4136 5.44614 14.9256 7.26751L13.6315 12.0971C13.1434 13.9185 12.8994 14.8292 12.182 15.2434C11.4645 15.6576 10.5539 15.4136 8.73249 14.9256L3.90286 13.6315C2.0815 13.1434 1.17081 12.8994 0.7566 12.182C0.342386 11.4645 0.586403 10.5539 1.07444 8.73249L2.36853 3.90286ZM9.93185 8.51763C10.1759 7.60695 10.2979 7.15161 10.0908 6.79289C9.88367 6.43417 9.42832 6.31216 8.51764 6.06814V6.06814C7.60696 5.82413 7.15162 5.70212 6.7929 5.90923C6.43418 6.11633 6.31217 6.57167 6.06815 7.48236V7.48236C5.82413 8.39304 5.70213 8.84838 5.90923 9.2071C6.11634 9.56582 6.57168 9.68783 7.48236 9.93185V9.93185C8.39305 10.1759 8.84839 10.2979 9.20711 10.0908C9.56583 9.88366 9.68784 9.42832 9.93185 8.51763V8.51763Z" fill="url(#paint0_linear_1019_90)"/>
<path d="M7.1381 1.55739L11.9677 2.85149C12.8921 3.09916 13.5365 3.27293 14.0053 3.46866C14.4608 3.65879 14.6799 3.84204 14.8104 4.06802C14.9409 4.29399 14.99 4.57535 14.9269 5.06489C14.862 5.56882 14.6903 6.21376 14.4426 7.1381L13.1485 11.9677C12.9008 12.8921 12.7271 13.5365 12.5313 14.0053C12.3412 14.4608 12.158 14.6799 11.932 14.8104C11.706 14.9409 11.4247 14.99 10.9351 14.9269C10.4312 14.862 9.78624 14.6903 8.8619 14.4426L4.03227 13.1485C3.10794 12.9008 2.46354 12.7271 1.99466 12.5313C1.53917 12.3412 1.32008 12.158 1.18961 11.932C1.05915 11.706 1.00999 11.4246 1.07308 10.9351C1.13801 10.4312 1.30972 9.78623 1.5574 8.8619L2.8515 4.03227C3.09917 3.10793 3.27293 2.46354 3.46866 1.99465C3.6588 1.53916 3.84205 1.32007 4.06802 1.18961C4.294 1.05914 4.57535 1.00999 5.06489 1.07307C5.56882 1.13801 6.21377 1.30972 7.1381 1.55739ZM5.47622 9.4571C5.65641 9.76921 5.93416 9.94651 6.23935 10.0739C6.52412 10.1928 6.89302 10.2916 7.32117 10.4063L7.35295 10.4148L7.38474 10.4233C7.81288 10.5381 8.18177 10.6369 8.48782 10.6764C8.81582 10.7186 9.14501 10.704 9.45711 10.5238C9.76921 10.3436 9.94651 10.0658 10.0739 9.76065C10.1928 9.47588 10.2916 9.10698 10.4063 8.67883L10.4148 8.64704L10.4233 8.61526C10.5381 8.18712 10.6369 7.81823 10.6764 7.51218C10.7187 7.18418 10.704 6.85499 10.5238 6.54289C10.3436 6.23079 10.0658 6.05348 9.76066 5.92609C9.47589 5.80722 9.10699 5.7084 8.67885 5.5937L8.64705 5.58518L8.61526 5.57666C8.18712 5.46192 7.81823 5.36305 7.51218 5.32361C7.18419 5.28135 6.855 5.29602 6.5429 5.47621C6.23079 5.65641 6.05349 5.93416 5.9261 6.23934C5.80723 6.52411 5.7084 6.89301 5.59371 7.32115L5.58519 7.35295L5.57667 7.38474C5.46192 7.81288 5.36306 8.18176 5.32362 8.48781C5.28136 8.81581 5.29603 9.145 5.47622 9.4571Z" stroke="white" stroke-opacity="0.25" style="mix-blend-mode:soft-light"/>
<defs>
<linearGradient id="paint0_linear_1019_90" x1="9" y1="2.5" x2="13" y2="16" gradientUnits="userSpaceOnUse">
<stop stop-color="#974242"/>
<stop offset="1" stop-color="#FF3E00"/>
</linearGradient>
</defs>
</svg>
